Running SS (AS)05b_kinetics.mot																		
nRows=84																		
nColumns=19																		
																		
name Running SS (AS)05b_kinetics.mot																		
datacolumns 19																		
datarows 84																		
range 0.625 0.701851852																		
endheader																		
time	1_ground_force_vx	1_ground_force_vy	1_ground_force_vz	1_ground_force_px	1_ground_force_py	1_ground_force_pz	2_ground_force_vx	2_ground_force_vy	2_ground_force_vz	2_ground_force_px	2_ground_force_py	2_ground_force_pz	1_ground_torque_x	1_ground_torque_y	1_ground_torque_z	2_ground_torque_x	2_ground_torque_y	2_ground_torque_z
0.625	0	0	0	0	0	0	142.2097201	1240.718211	41.03467668	1.67090615	0	0.196524631	0	0	0	0	3.271006896	0
0.625925926	0	0	0	0	0	0	144.6259522	1228.773905	40.1313639	1.671276482	0	0.1966433	0	0	0	0	3.292288368	0
0.626851852	0	0	0	0	0	0	146.9505672	1216.63731	39.21989473	1.671651856	0	0.196763824	0	0	0	0	3.312329734	0
0.627777778	0	0	0	0	0	0	149.1852465	1204.312481	38.30139798	1.672032222	0	0.19688613	0	0	0	0	3.331114376	0
0.628703704	0	0	0	0	0	0	151.3315861	1191.803658	37.37701871	1.672417513	0	0.197010146	0	0	0	0	3.348624236	0
0.62962963	0	0	0	0	0	0	153.3910654	1179.115246	36.44791627	1.672807653	0	0.197135794	0	0	0	0	3.364839461	0
0.630555556	0	0	0	0	0	0	155.3650215	1166.251806	35.5152624	1.67320256	0	0.197262999	0	0	0	0	3.379738156	0
0.631481482	0	0	0	0	0	0	157.2546265	1153.218043	34.58023933	1.673602147	0	0.19739168	0	0	0	0	3.393296239	0
0.632407407	0	0	0	0	0	0	159.0608687	1140.0188	33.644038	1.674006327	0	0.197521755	0	0	0	0	3.405487409	0
0.633333333	0	0	0	0	0	0	160.7845391	1126.659052	32.70785615	1.674415017	0	0.197653139	0	0	0	0	3.416283205	0
0.634259259	0	0	0	0	0	0	162.4262203	1113.143901	31.77289647	1.674828138	0	0.197785743	0	0	0	0	3.425653175	0
0.635185185	0	0	0	0	0	0	163.9862815	1099.478579	30.84036471	1.675245622	0	0.197919478	0	0	0	0	3.433565127	0
0.636111111	0	0	0	0	0	0	165.4648755	1085.668443	29.91146767	1.675667409	0	0.198054246	0	0	0	0	3.43998547	0
0.637037037	0	0	0	0	0	0	166.8619416	1071.718983	28.98741121	1.676093453	0	0.198189947	0	0	0	0	3.444879625	0
0.637962963	0	0	0	0	0	0	168.1772104	1057.63582	28.06939799	1.676523725	0	0.198326477	0	0	0	0	3.448212494	0
0.638888889	0	0	0	0	0	0	169.4102142	1043.424714	27.1586252	1.676958208	0	0.198463724	0	0	0	0	3.44994898	0
0.639814815	0	0	0	0	0	0	170.5602995	1029.091567	26.25628193	1.677396904	0	0.198601571	0	0	0	0	3.450054533	0
0.640740741	0	0	0	0	0	0	171.6266437	1014.642432	25.36354643	1.677839832	0	0.198739895	0	0	0	0	3.448495715	0
0.641666667	0	0	0	0	0	0	172.608274	1000.083513	24.48158304	1.678287031	0	0.198878565	0	0	0	0	3.445240755	0
0.642592593	0	0	0	0	0	0	173.5040904	985.4211739	23.6115388	1.678738554	0	0.199017441	0	0	0	0	3.440260089	0
0.643518519	0	0	0	0	0	0	174.3128896	970.6619412	22.7545398	1.679194477	0	0.199156376	0	0	0	0	3.433526866	0
0.644444444	0	0	0	0	0	0	175.0333925	955.812508	21.91168714	1.679654888	0	0.199295212	0	0	0	0	3.425017402	0
0.64537037	0	0	0	0	0	0	175.664272	940.8797354	21.08405266	1.680119894	0	0.199433785	0	0	0	0	3.414711576	0
0.646296296	0	0	0	0	0	0	176.2041833	925.8706531	20.27267425	1.680589616	0	0.199571918	0	0	0	0	3.402593158	0
0.647222222	0	0	0	0	0	0	176.6517939	910.7924583	19.47855096	1.681064189	0	0.199709424	0	0	0	0	3.388650061	0
0.648148148	0	0	0	0	0	0	177.0058146	895.6525115	18.70263781	1.681543758	0	0.199846107	0	0	0	0	3.372874516	0
0.649074074	0	0	0	0	0	0	177.26503	880.4583322	17.94584035	1.68202848	0	0.19998176	0	0	0	0	3.355263159	0
0.65	0	0	0	0	0	0	177.4283282	865.2175906	17.20900906	1.682518517	0	0.200116165	0	0	0	0	3.335817039	0
0.650925926	0	0	0	0	0	0	177.4947296	849.9380982	16.49293363	1.683014039	0	0.200249093	0	0	0	0	3.314541537	0
0.651851852	0	0	0	0	0	0	177.4634135	834.6277966	15.79833701	1.683515218	0	0.200380308	0	0	0	0	3.291446211	0
0.652777778	0	0	0	0	0	0	177.3337432	819.2947436	15.1258695	1.684022227	0	0.200509561	0	0	0	0	3.266544547	0
0.653703704	0	0	0	0	0	0	177.1052876	803.9470982	14.47610275	1.684535237	0	0.200636596	0	0	0	0	3.239853649	0
0.65462963	0	0	0	0	0	0	176.7778409	788.5931035	13.84952381	1.685054414	0	0.20076115	0	0	0	0	3.211393858	0
0.655555556	0	0	0	0	0	0	176.3514379	773.2410688	13.24652933	1.685579921	0	0.200882951	0	0	0	0	3.181188318	0
0.656481482	0	0	0	0	0	0	175.8263669	757.8993501	12.66741996	1.68611191	0	0.201001724	0	0	0	0	3.149262512	0
0.657407407	0	0	0	0	0	0	175.2031781	742.5763296	12.11239513	1.686650522	0	0.201117187	0	0	0	0	3.115643765	0
0.658333333	0	0	0	0	0	0	174.4826892	727.2803949	11.58154827	1.687195888	0	0.201229058	0	0	0	0	3.08036075	0
0.659259259	0	0	0	0	0	0	173.6659868	712.0199176	11.07486274	1.68774812	0	0.201337054	0	0	0	0	3.043443009	0
0.660185185	0	0	0	0	0	0	172.7544248	696.8032308	10.59220849	1.68830732	0	0.201440894	0	0	0	0	3.004920506	0
0.661111111	0	0	0	0	0	0	171.749619	681.6386078	10.13333972	1.688873568	0	0.201540299	0	0	0	0	2.964823231	0
0.662037037	0	0	0	0	0	0	170.6534387	666.5342399	9.697893639	1.689446929	0	0.201634999	0	0	0	0	2.923180879	0
0.662962963	0	0	0	0	0	0	169.4679955	651.4982146	9.285390453	1.690027448	0	0.20172473	0	0	0	0	2.880022605	0
0.663888889	0	0	0	0	0	0	168.1956286	636.5384946	8.895234697	1.690615151	0	0.201809242	0	0	0	0	2.835376887	0
0.664814815	0	0	0	0	0	0	166.8388881	621.6628976	8.526717968	1.691210044	0	0.201888298	0	0	0	0	2.789271487	0
0.665740741	0	0	0	0	0	0	165.400516	606.8790771	8.179023086	1.691812118	0	0.201961678	0	0	0	0	2.74173352	0
0.666666667	0	0	0	0	0	0	163.8834246	592.1945047	7.851229676	1.692421342	0	0.202029184	0	0	0	0	2.692789639	0
0.667592593	0	0	0	0	0	0	162.2906743	577.6164544	7.542321112	1.693037672	0	0.202090639	0	0	0	0	2.642466322	0
0.668518519	0	0	0	0	0	0	160.6254494	563.1519889	7.251192748	1.693661048	0	0.202145893	0	0	0	0	2.59079025	0
0.669444444	0	0	0	0	0	0	158.891034	548.8079484	6.97666133	1.694291398	0	0.202194823	0	0	0	0	2.537788781	0
0.67037037	0	0	0	0	0	0	157.090787	534.5909415	6.717475467	1.694928637	0	0.202237339	0	0	0	0	2.483490492	0
0.671296296	0	0	0	0	0	0	155.2281181	520.5073391	6.472327007	1.695572673	0	0.202273385	0	0	0	0	2.427925788	0
0.672222222	0	0	0	0	0	0	153.3064641	506.5632712	6.23986321	1.696223411	0	0.20230294	0	0	0	0	2.37112755	0
0.673148148	0	0	0	0	0	0	151.3292672	492.7646256	6.018699553	1.696880749	0	0.202326021	0	0	0	0	2.313131831	0
0.674074074	0	0	0	0	0	0	149.2999538	479.1170499	5.807433051	1.697544586	0	0.202342687	0	0	0	0	2.253978564	0
0.675	0	0	0	0	0	0	147.2219165	465.6259553	5.604655929	1.698214825	0	0.202353036	0	0	0	0	2.193712284	0
0.675925926	0	0	0	0	0	0	145.0984978	452.2965224	5.408969514	1.698891371	0	0.202357208	0	0	0	0	2.132382842	0
0.676851852	0	0	0	0	0	0	142.9329759	439.1337083	5.21899819	1.699574135	0	0.20235539	0	0	0	0	2.070046093	0
0.677777778	0	0	0	0	0	0	140.7285532	426.1422553	5.033403231	1.700263039	0	0.202347808	0	0	0	0	2.006764552	0
0.678703704	0	0	0	0	0	0	138.4883464	413.3266991	4.850896366	1.70095801	0	0.202334732	0	0	0	0	1.942607979	0
0.67962963	0	0	0	0	0	0	136.2153788	400.6913777	4.670252859	1.701658987	0	0.202316474	0	0	0	0	1.877653896	0
0.680555556	0	0	0	0	0	0	133.9125747	388.2404391	4.490323933	1.702365916	0	0.20229339	0	0	0	0	1.811987998	0
0.681481482	0	0	0	0	0	0	131.5827539	375.977848	4.310048322	1.703078751	0	0.202265869	0	0	0	0	1.745704448	0
0.682407407	0	0	0	0	0	0	129.2286292	363.9073916	4.12846276	1.703797455	0	0.202234343	0	0	0	0	1.678906032	0
0.683333333	0	0	0	0	0	0	126.8528032	352.0326826	3.944711206	1.704521993	0	0.202199275	0	0	0	0	1.611704165	0
0.684259259	0	0	0	0	0	0	124.457768	340.3571613	3.758052635	1.705252334	0	0.202161161	0	0	0	0	1.544218716	0
0.685185185	0	0	0	0	0	0	122.0459047	328.8840943	3.567867251	1.705988442	0	0.202120524	0	0	0	0	1.476577665	0
0.686111111	0	0	0	0	0	0	119.6194844	317.6165724	3.373660985	1.706730278	0	0.202077912	0	0	0	0	1.408916569	0
0.687037037	0	0	0	0	0	0	117.1806705	306.5575054	3.175068221	1.707477792	0	0.202033896	0	0	0	0	1.341377852	0
0.687962963	0	0	0	0	0	0	114.7315211	295.7096146	2.971852687	1.708230918	0	0.20198906	0	0	0	0	1.274109902	0
0.688888889	0	0	0	0	0	0	112.2739932	285.0754248	2.763906543	1.708989569	0	0.201944004	0	0	0	0	1.207266014	0
0.689814815	0	0	0	0	0	0	109.8099468	274.6572533	2.551247714	1.70975363	0	0.201899338	0	0	0	0	1.14100318	0
0.690740741	0	0	0	0	0	0	107.3411496	264.4571988	2.334015582	1.710522956	0	0.201855672	0	0	0	0	1.075480754	0
0.691666667	0	0	0	0	0	0	104.8692826	254.4771286	2.112465176	1.711297359	0	0.201813621	0	0	0	0	1.010859024	0
0.692592593	0	0	0	0	0	0	102.3959449	244.718667	1.886960059	1.71207661	0	0.201773794	0	0	0	0	0.947297715	0
0.693518519	0	0	0	0	0	0	99.92265956	235.183182	1.657964105	1.712860424	0	0.201736793	0	0	0	0	0.884954465	0
0.694444444	0	0	0	0	0	0	97.45087919	225.8717746	1.426032384	1.71364846	0	0.201703209	0	0	0	0	0.823983301	0
0.69537037	0	0	0	0	0	0	94.98199124	216.7852676	1.191801379	1.714440314	0	0.201673615	0	0	0	0	0.764533142	0
0.696296296	0	0	0	0	0	0	92.51732346	207.924197	0.955978755	1.715235511	0	0.201648566	0	0	0	0	0.706746359	0
0.697222222	0	0	0	0	0	0	90.0581491	199.2888047	0.719332879	1.716033503	0	0.201628591	0	0	0	0	0.650757424	0
0.698148148	0	0	0	0	0	0	87.60569194	190.8790335	0.482682297	1.71683366	0	0.201614196	0	0	0	0	0.596691667	0
0.699074074	0	0	0	0	0	0	85.16113116	182.6945245	0.246885302	1.71763527	0	0.201605852	0	0	0	0	0.544664151	0
0.7	0	0	0	0	0	0	82.72560593	174.7346165	0.012829758	1.718437534	0	0.201603998	0	0	0	0	0.494778696	0
0.700925926	0	0	0	0	0	0	80.3002201	166.998349	-0.218576731	1.71923956	0	0.201609037	0	0	0	0	0.447127052	0
0.701851852	0	0	0	0	0	0	77.88604664	159.4844663	-0.446416197	1.720040367	0	0.201621332	0	0	0	0	0.40178823	0
